<?xml version="1.0" standalone="no"?><!DOCTYPE svg PUBLIC "-//W3C//DTD SVG 1.1//EN" "http://www.w3.org/Graphics/SVG/1.1/DTD/svg11.dtd"><svg t="1581567408103" class="icon" viewBox="0 0 3686 1024" version="1.1" xmlns="http://www.w3.org/2000/svg" p-id="1072" xmlns:xlink="http://www.w3.org/1999/xlink" width="719.921875" height="200"><defs><style type="text/css"></style></defs><path d="M2383.598933 222.72V785.066667H2312.192l-41.642667-15.530667v-35.84l41.642667 15.5648V258.525867h-230.912v454.894933c0 38.5024-30.651733 70.178133-68.7104 71.611733l-2.6624 0.034134V222.72h373.691733z m984.234667 179.0976v292.215467l83.285333 24.1664H3652.266667v47.786666h-207.086934l-90.658133-25.6-29.525333 38.7072-55.978667-44.168533 27.409067-35.84v-297.301333h71.406933zM2779.921067 220.330667v94.3104h192.785066l45.226667 56.1152-385.774933 313.924266 95.368533 46.660267h280.8832v35.84h-289.211733l-117.9648-57.344-30.788267 25.088c-29.013333 24.439467-72.704 20.514133-98.065067-8.465067l-1.911466-2.286933L2929.8688 350.446933H2510.9504V314.641067h197.632a103.8336 103.8336 0 0 1 68.232533-93.218134l3.072-1.092266zM1757.5936 715.776v47.786667H1194.666667v-47.786667h562.926933z m1503.1296-316.416v35.84h-52.360533v93.115733h52.360533v35.84h-52.360533v162.372267l23.790933-9.557333v35.84l-23.790933 9.557333h-71.406934v-198.212267h-42.871466v-35.84h42.871466v-93.115733h-42.871466v-35.84h166.638933zM1988.130133 675.498667l6.382934 47.3088-175.7184 23.8592-6.382934-47.342934 175.7184-23.825066zM3433.301333 216.746667c28.910933 10.24 49.322667 33.314133 55.978667 60.893866h149.879467v47.752534h-151.005867l-17.134933 100.283733h28.910933V364.782933h71.406933v60.893867h67.822934v47.786667h-67.822934v83.5584h77.346134v47.786666h-77.346134v96.6656h-71.406933v-96.699733h-99.976533v-47.786667h99.976533V473.429333h-109.499733v-47.752533l20.5824-100.283733h-20.5824v-47.786667h30.378666l12.4928-60.859733z m-1148.484266 308.0192v164.795733h-176.128v-164.795733h176.128zM1369.6 204.8a72.465067 72.465067 0 0 1 17.851733 100.283733l-80.657066 113.629867 82.158933-17.783467 5.870933-8.3968 58.436267 41.130667-113.083733 161.757867 94.481066-16.554667 6.144 35.259733-129.570133 22.7328-15.803733 22.596267-58.4704-41.130667 121.787733-174.216533-82.670933 17.885867-6.417067 9.045333-58.333867-40.584533L1369.6 204.8z m273.749333 0a72.465067 72.465067 0 0 1 17.851734 100.283733l-80.657067 113.629867 82.1248-17.783467 6.109867-8.738133 58.436266 41.130667-113.322666 162.0992 94.549333-16.554667 6.144 35.259733-129.6384 22.7328-15.5648 22.254934-58.4704-41.130667 121.5488-173.8752-82.670933 17.92-6.417067 9.0112-58.299733-40.584533L1643.349333 204.8z m570.0608 355.805867h-33.314133v93.115733h33.314133v-93.115733zM1923.003733 219.136a72.465067 72.465067 0 0 1 17.885867 100.283733l-68.949333 97.928534 68.7104-14.916267 6.792533-9.659733 58.436267 41.130666-103.0144 147.3536 84.138666-14.7456 6.144 35.293867-119.296 20.923733-14.882133 21.333334-58.4704-41.130667 109.943467-157.320533-68.949334 14.9504-6.5536 9.284266-8.6016-6.007466-0.273066 0.068266-0.068267-0.273066-49.3568-34.372267 146.363733-210.1248z m309.4528 70.4512v53.725867h42.837334v35.805866h-42.837334v70.4512h58.299734v35.84h-188.040534v-35.84h58.333867v-70.4512h-41.642667v-35.84h41.642667V289.621333h71.406933z m891.392-81.237333a69.973333 69.973333 0 0 1 59.392 72.874666h64.375467v35.84h-69.870933l-8.669867 51.3024-70.212267-11.946666 24.9856-148.036267z m174.967467 34.645333l71.406933 23.893333v64.477867h-71.406933V242.9952z" fill="#18BB8A" p-id="1073"></path><path d="M512 512m-477.866667 0a477.866667 477.866667 0 1 0 955.733334 0 477.866667 477.866667 0 1 0-955.733334 0Z" fill="#18BB8A" p-id="1074"></path><path d="M477.866667 426.0864c4.539733-4.1984 99.157333-32.187733 149.060266-4.1984 54.442667 30.8224 65.467733 74.24 108.2368 123.972267 16.315733 18.8416 38.980267 23.9616 47.2064 25.429333 1.706667-0.955733 2.696533-1.604267 2.696534-1.604267v19.3536c0 45.9776-26.897067 88.951467-70.2464 111.957334l-133.905067 71.338666a112.196267 112.196267 0 0 1-103.697067 0l-133.905066-71.338666C299.963733 677.956267 273.7152 634.9824 273.066667 588.458667v-61.713067h3.925333c36.7616 0 66.9696 27.818667 66.9696 61.713067 0 22.971733 13.141333 44.1344 34.816 55.637333l133.870933 71.406933c10.513067 5.461333 22.971733 5.461333 32.836267 0l133.905067-71.406933c17.066667-9.079467 28.8768-24.200533 32.802133-41.745067l-4.608 0.4096c-3.106133 0.136533-6.314667 0-9.8304-0.4096-67.584-4.232533-122.094933-84.6848-144.384-111.9232-21.026133-26.0096-65.672533-46.592-80.110933-45.9776h-1.297067c14.4384-1.809067 28.8768 0 42.666667 3.037867 15.086933 3.003733 29.525333 7.2704 43.349333 13.312 13.755733 6.0416 26.2144 14.506667 36.727467 24.200533 11.1616 9.659733 20.343467 20.548267 30.208 32.085334 9.8304 10.8544 19.694933 22.357333 31.505066 32.631466 11.810133 9.693867 25.6 18.158933 40.686934 23.586134 14.4384 6.075733 30.856533 9.079467 46.592 8.4992a80.110933 80.110933 0 0 0 24.337066-3.857067 79.7696 79.7696 0 0 1-23.1424 2.218667c-14.916267 0-29.184-4.9152-42.769066-11.912534a130.594133 130.594133 0 0 1-36.317867-27.306666c-10.990933-11.195733-20.0704-23.825067-29.7984-37.102934-9.728-12.629333-19.456-25.941333-31.095467-37.819733a159.744 159.744 0 0 0-39.560533-27.989333 153.3952 153.3952 0 0 0-45.3632-13.312c-7.7824-1.4336-15.5648-1.4336-22.016-2.116267-7.168 0.682667-13.653333 1.365333-20.104533 3.4816z m-175.240534 17.681067l5.973334 0.068266a111.616 111.616 0 0 1 38.161066 9.557334 109.226667 109.226667 0 0 1 32.256 21.777066c9.864533 8.942933 17.749333 19.182933 26.282667 29.3888 8.567467 10.24 17.134933 20.48 27.648 30.037334 9.898667 8.977067 21.7088 17.3056 34.884267 22.4256 13.175467 5.12 26.3168 8.2944 40.1408 10.24 7.236267 0.6144 13.824 1.262933 20.411733 2.525866 5.905067 0 11.844267-0.648533 17.749333-2.56-3.959467 3.208533-88.1664 25.6-132.266666 3.208534-48.0256-24.917333-57.890133-59.460267-96.0512-99.1232-17.1008-17.237333-41.472-19.797333-44.7488-20.48a76.8 76.8 0 0 1 35.5328-6.997334z m160.8704-193.1264a106.257067 106.257067 0 0 1 97.006934 0l125.064533 64.3072C725.674667 336.213333 750.933333 374.8864 750.933333 416.119467v55.569066h-3.515733c-34.440533 0-62.532267-24.9856-62.532267-55.569066 0-20.616533-11.946667-39.936-32.324266-49.9712l-125.098667-64.3072a33.792 33.792 0 0 0-30.9248 0L372.872533 365.568c-16.1792 8.123733-26.7264 21.845333-30.9248 37.4784l4.232534-0.4096c2.8672-0.170667 5.802667 0 9.1136 0.4096 63.249067 4.369067 114.551467 76.1856 135.611733 101.137067 19.694933 23.108267 60.416 41.233067 74.513067 41.233066h0.682666c-13.312 1.877333-26.692267 0-40.0384-2.491733a177.800533 177.800533 0 0 1-40.7552-11.8784 134.621867 134.621867 0 0 1-34.474666-21.845333c-10.513067-8.738133-18.944-18.773333-28.091734-28.740267a299.588267 299.588267 0 0 0-29.4912-29.354667c-11.264-8.738133-23.893333-16.213333-37.956266-21.230933a113.8688 113.8688 0 0 0-43.588267-7.509333 132.573867 132.573867 0 0 0-21.777067 3.754666c-8.430933 2.525867-16.861867 7.509333-16.861866 7.509334v-17.476267c0-41.847467 24.576-80.554667 65.365333-101.1712z" fill="#FFFFFF" p-id="1075"></path></svg>